<?xml version="1.0" encoding="utf-8"?>
<!-- Generator: Adobe Illustrator 27.5.0, SVG Export Plug-In . SVG Version: 6.00 Build 0)  -->
<svg version="1.1" xmlns="http://www.w3.org/2000/svg" xmlns:xlink="http://www.w3.org/1999/xlink" x="0px" y="0px"
	viewBox="0 0 500 500" style="enable-background:new 0 0 500 500;" xml:space="preserve">

	<g id="OBJECTS">
		<g>
			<g>
				<path style="fill:#974C0E;" d="M279.232,262.134h-27.739h-2.853h-27.739c0,0-47.371,17.649-47.371,70.009v30.592h75.11h2.853
				h75.11v-30.592C326.603,279.783,279.232,262.134,279.232,262.134z" />
				<path style="fill:#FF8019;" d="M279.232,265.134h-27.739h-2.853h-27.739c0,0-47.371,17.649-47.371,80.009v30.592h75.11h2.853
				h86.11v-30.592C326.603,279.783,279.232,262.134,279.232,262.134z" />

				<path style="fill:#974C0E;" d="M322.223,196.096c-11.301-53.342-39.578-93.123-73.584-98.096
				c-34.005,4.973-62.282,44.753-73.583,98.096c-11.301,53.342,43.849,71.425,43.849,71.425l29.734,16.274l29.735-16.274
				C278.374,267.521,333.524,249.438,322.223,196.096z" />
				<path style="fill:#FF8019;" d="M322.223,196.096c-11.301-40.342-39.578-93.123-73.584-98.096
				c-34.005,4.973-62.282,44.753-73.583,98.096c-11.301,40.342,43.849,71.425,43.849,71.425l29.734,16.274l29.735-16.274
				C278.374,267.521,333.524,249.438,322.223,196.096z" />

				<path style="fill:#111;" d="M268.086,147.698c0,0-6.482-8.589-19.447-8.589s-19.447,8.589-19.447,8.589
				c-25.003,23.507-50.006,83.658-19.447,100.836c30.559,17.178,38.894,35.26,38.894,35.26s8.334-18.082,38.894-35.26
				C318.092,231.356,293.089,171.205,268.086,147.698z" />
				<g>
					<defs>
						<path id="SVGID_1_" d="M268.086,147.698c0,0-6.482-8.589-19.447-8.589s-19.447,8.589-19.447,8.589
						c-25.003,23.507-50.006,83.658-19.447,100.836c30.559,17.178,38.894,35.26,38.894,35.26s8.334-18.082,38.894-35.26
						C318.092,231.356,293.089,171.205,268.086,147.698z" />
					</defs>
					<clipPath id="SVGID_00000104704725424573232910000004879511831852714144_">
						<use xlink:href="#SVGID_1_" style="overflow:visible;" />
					</clipPath>
					<path
						style="clip-path:url(#SVGID_00000104704725424573232910000004879511831852714144_);fill:#EB9F69;"
						d="M257.763,226.447
					h-18.248c-3.686,0-6.674,3.355-6.674,7.493v32.119c0,9.795,7.073,17.736,15.799,17.736s15.799-7.94,15.799-17.736V233.94
					C264.438,229.802,261.45,226.447,257.763,226.447z" />
					<path
						style="clip-path:url(#SVGID_00000104704725424573232910000004879511831852714144_);fill:#D9915E;"
						d="M232.43,243.037
					c0,0,1.279,9.304,15.799,9.304c14.52,0,15.8-9.304,15.8-9.304H232.43z" />
					<path
						style="clip-path:url(#SVGID_00000104704725424573232910000004879511831852714144_);fill:#EA9F6A;"
						d="M294.034,181.424
					c-5.511,0-9.978,4.644-9.978,10.374c0,5.73,4.468,10.375,9.978,10.375c5.511,0,9.978-4.645,9.978-10.375
					C304.012,186.069,299.545,181.424,294.034,181.424z" />
					<path
						style="clip-path:url(#SVGID_00000104704725424573232910000004879511831852714144_);fill:#EA9F6A;"
						d="M203.28,181.424
					c-5.511,0-9.979,4.644-9.979,10.374c0,5.73,4.468,10.375,9.979,10.375c5.511,0,9.978-4.645,9.978-10.375
					C213.258,186.069,208.791,181.424,203.28,181.424z" />
					<path
						style="clip-path:url(#SVGID_00000104704725424573232910000004879511831852714144_);fill:#EB9F69;"
						d="M245.008,246.019
					l-0.078,0.076c1.225,0.1,2.459,0.164,3.71,0.164l0,0c3.76,0,7.409-0.467,10.896-1.336c0.015-0.03,0.028-0.062,0.043-0.092
					c19.301-4.832,33.586-22.15,33.586-42.777v-51.697c0-24.369-19.934-20.486-44.525-20.486l0,0
					c-24.59,0-44.525-3.882-44.525,20.486v51.697C204.115,225.209,222.118,244.185,245.008,246.019z" />
					<path
						style="clip-path:url(#SVGID_00000104704725424573232910000004879511831852714144_);fill:#EA9F6A;"
						d="M249.519,213.018
					h-2.579c-3.048,0-5.407-2.672-5.029-5.696l1.29-12.358c0.317-2.536,2.473-4.439,5.029-4.439l0,0
					c2.556,0,4.712,1.903,5.029,4.439l1.29,12.358C254.926,210.346,252.567,213.018,249.519,213.018z" />
					<path
						style="clip-path:url(#SVGID_00000104704725424573232910000004879511831852714144_);fill:#271101;"
						d="M217.114,140.12
					c0,0-2.329,15.769,33.509,24.908c0,0-7.038-6.995-7.409-10.243c0,0,5.183,8.745,28.553,12.035c0,0-10.643-6.517-9.986-10.227
					c0,0,16.078,14.365,31.384,10.092l-16.116-20.315c-11.199-14.116-30.476-18.964-47.02-11.824L217.114,140.12z" />
					<path
						style="opacity:0.27;clip-path:url(#SVGID_00000104704725424573232910000004879511831852714144_);fill:#4E2F1F;"
						d="
					M193.742,204.526c0,0,17.26-36.712,53.9-36.782c36.602-0.071,53.989,34.62,53.989,34.62s-8.531-86.847-54.52-86.847
					S193.742,204.526,193.742,204.526z" />
					<g style="clip-path:url(#SVGID_00000104704725424573232910000004879511831852714144_);">
						<path style="fill:#1d1d1d;" d="M229.645,208.143h-11.463c-9.028,0-16.347-7.319-16.347-16.347v-7.637
						c0-4.802,3.892-8.694,8.694-8.694h23.543c5.381,0,9.743,4.362,9.743,9.743v8.765
						C243.815,201.799,237.471,208.143,229.645,208.143z" />
						<path style="fill:#1d1d1d;" d="M266.695,208.143h11.463c9.028,0,16.347-7.319,16.347-16.347v-7.637
						c0-4.802-3.892-8.694-8.694-8.694h-23.543c-5.381,0-9.743,4.362-9.743,9.743v8.765
						C252.526,201.799,258.87,208.143,266.695,208.143z" />
						<rect x="242.658" y="184.382" style="fill:#1d1d1d;" width="10.634" height="7.692" />
					</g>

					<line
						style="clip-path:url(#SVGID_00000104704725424573232910000004879511831852714144_);fill:none;stroke:#1d1d1d;stroke-width:1.9495;stroke-linecap:round;stroke-linejoin:round;stroke-miterlimit:10;"
						x1="240.49" y1="224.498" x2="256.788" y2="224.498" />
				</g>
			</g>

			<linearGradient id="SVGID_00000080189914547089045940000014298108443911346110_"
				gradientUnits="userSpaceOnUse" x1="251.2661" y1="610.0" x2="251.2661" y2="110">
				<stop offset="0.0016" style="stop-color:#ccc;stop-opacity:0.9" />
				<stop offset="0.8844" style="stop-color:#fff;stop-opacity:0" />
			</linearGradient>
			<polygon style="opacity:0.34;fill:url(#SVGID_00000080189914547089045940000014298108443911346110_);" points="146.284,410.955 
			26.264,98 476.268,98 353.853,410.955 		" />
			<g>
				<path style="fill:#BFBFBF;" d="M363.722,424.742H137.754c-4.639,0-8.4-3.761-8.4-8.4v-0.396c0-4.639,3.761-8.4,8.4-8.4h225.968
				c4.639,0,8.4,3.761,8.4,8.4v0.396C372.122,420.981,368.361,424.742,363.722,424.742z" />
				<path style="fill:#D8D8D8;" d="M343.043,424.742H157.047c-5.957,0-10.787-4.829-10.787-10.787V307.179
				c0-5.957,4.829-10.786,10.787-10.786h185.996c5.957,0,10.787,4.829,10.787,10.786v106.776
				C353.829,419.912,349,424.742,343.043,424.742z" />
				<path style="fill:#FF8019;" d="M249.758,379.629c-9.257,0-16.788-7.531-16.788-16.788s7.531-16.788,16.788-16.788
				c9.256,0,16.788,7.531,16.788,16.788S259.014,379.629,249.758,379.629z" />
				<path style="fill:#1d1d1d;" d="M261.643,340.389c-7.984-4.259-17.617-4.259-25.601,0c-8.009,4.273-15.494,13.01-7.913,30.623
				c0,0-4.063,13.499,8.816,10.468c0,0,2.066-0.344,1.929,2.755v0.045v1.813c0,1.204,0.977,2.181,2.181,2.181h0.065
				c1.205,0,2.181-0.977,2.181-2.181v-1.813h1.091h2.292v1.813c0,1.204,0.977,2.181,2.181,2.181h0.065
				c1.204,0,2.181-0.977,2.181-2.181v-1.813h2.181h0.72h0.338v1.813c0,1.204,0.977,2.181,2.181,2.181h0.065
				c1.204,0,2.181-0.977,2.181-2.181v-1.813h0.034v-0.045c-0.138-3.099,1.929-2.755,1.929-2.755
				c12.878,3.03,8.816-10.468,8.816-10.468C277.137,353.399,269.653,344.662,261.643,340.389z M239.297,371.326
				c-3.085,0-5.587-2.501-5.587-5.587c0-3.086,2.501-5.587,5.587-5.587c3.086,0,5.587,2.501,5.587,5.587
				C244.884,368.825,242.382,371.326,239.297,371.326z M246.959,375.772c0.099-1.143,0.939-2.011,1.939-2.011
				c1,0,1.84,0.868,1.939,2.011c0.042,0.487,0.064,1.052,0.064,1.706c0,1.002-0.216,1.12-0.574,0.944
				c-0.908-0.446-1.949-0.448-2.856-0.001c-0.359,0.177-0.576,0.06-0.576-0.944C246.894,376.824,246.917,376.26,246.959,375.772z
				 M258.081,371.326c-3.085,0-5.587-2.501-5.587-5.587c0-3.086,2.501-5.587,5.587-5.587c3.086,0,5.587,2.501,5.587,5.587
				C263.668,368.825,261.167,371.326,258.081,371.326z" />
			</g>
		</g>
	</g>

</svg>